G04 #@! TF.FileFunction,Soldermask,Bot*
%FSLAX46Y46*%
G04 Gerber Fmt 4.6, Leading zero omitted, Abs format (unit mm)*
G04 Created by KiCad (PCBNEW 4.0.5) date 02/23/17 17:23:27*
%MOMM*%
%LPD*%
G01*
G04 APERTURE LIST*
%ADD10C,0.100000*%
%ADD11R,2.600000X2.600000*%
%ADD12O,2.600000X2.600000*%
%ADD13R,2.000000X2.000000*%
%ADD14C,2.000000*%
%ADD15R,2.100000X2.100000*%
%ADD16O,2.100000X2.100000*%
%ADD17O,2.940000X2.432000*%
%ADD18O,2.000000X2.000000*%
%ADD19C,2.800000*%
%ADD20O,2.800000X2.800000*%
%ADD21R,2.899360X2.899360*%
%ADD22R,1.800000X1.800000*%
%ADD23C,1.800000*%
G04 APERTURE END LIST*
D10*
D11*
X135890000Y-105410000D03*
D12*
X135890000Y-115570000D03*
D13*
X142240000Y-107950000D03*
D14*
X142240000Y-111450000D03*
D15*
X146685000Y-116205000D03*
D16*
X146685000Y-118745000D03*
X144145000Y-116205000D03*
X144145000Y-118745000D03*
X141605000Y-116205000D03*
X141605000Y-118745000D03*
D17*
X134620000Y-95885000D03*
X134620000Y-93345000D03*
X134620000Y-98425000D03*
D14*
X139065000Y-92710000D03*
D18*
X139065000Y-102870000D03*
D14*
X139700000Y-88900000D03*
D18*
X149860000Y-88900000D03*
D14*
X146050000Y-92710000D03*
D18*
X146050000Y-102870000D03*
D14*
X149860000Y-92710000D03*
D18*
X149860000Y-102870000D03*
D13*
X152400000Y-92710000D03*
D18*
X160020000Y-100330000D03*
X152400000Y-95250000D03*
X160020000Y-97790000D03*
X152400000Y-97790000D03*
X160020000Y-95250000D03*
X152400000Y-100330000D03*
X160020000Y-92710000D03*
D13*
X147955000Y-106680000D03*
D18*
X155575000Y-111760000D03*
X147955000Y-109220000D03*
X155575000Y-109220000D03*
X147955000Y-111760000D03*
X155575000Y-106680000D03*
D13*
X142557500Y-92710000D03*
D18*
X142557500Y-102870000D03*
D19*
X133350000Y-84455000D03*
D20*
X153670000Y-84455000D03*
D21*
X165100000Y-105410000D03*
X165100000Y-100330000D03*
X165100000Y-95250000D03*
X165100000Y-90170000D03*
D14*
X132715000Y-109855000D03*
X132715000Y-104775000D03*
D22*
X158750000Y-81280000D03*
D23*
X158750000Y-86360000D03*
X161290000Y-83820000D03*
M02*
