G04 #@! TF.FileFunction,Legend,Top*
%FSLAX46Y46*%
G04 Gerber Fmt 4.6, Leading zero omitted, Abs format (unit mm)*
G04 Created by KiCad (PCBNEW 4.0.5) date 02/23/17 17:23:27*
%MOMM*%
%LPD*%
G01*
G04 APERTURE LIST*
%ADD10C,0.100000*%
%ADD11C,0.300000*%
%ADD12C,0.120000*%
%ADD13C,0.150000*%
%ADD14C,0.152400*%
G04 APERTURE END LIST*
D10*
D11*
X131481000Y-130935333D02*
X131481000Y-129535333D01*
X132281000Y-130935333D02*
X131681000Y-130135333D01*
X132281000Y-129535333D02*
X131481000Y-130335333D01*
X133547667Y-130935333D02*
X132881000Y-130935333D01*
X132881000Y-129535333D01*
X134014333Y-130402000D02*
X135081000Y-130402000D01*
X135681000Y-130535333D02*
X136347666Y-130535333D01*
X135547666Y-130935333D02*
X136014333Y-129535333D01*
X136481000Y-130935333D01*
X136947666Y-130935333D02*
X136947666Y-129535333D01*
X138414333Y-130935333D02*
X137947667Y-130268667D01*
X137614333Y-130935333D02*
X137614333Y-129535333D01*
X138147667Y-129535333D01*
X138281000Y-129602000D01*
X138347667Y-129668667D01*
X138414333Y-129802000D01*
X138414333Y-130002000D01*
X138347667Y-130135333D01*
X138281000Y-130202000D01*
X138147667Y-130268667D01*
X137614333Y-130268667D01*
X140547667Y-130202000D02*
X140081000Y-130202000D01*
X140081000Y-130935333D02*
X140081000Y-129535333D01*
X140747667Y-129535333D01*
X141947667Y-130935333D02*
X141281000Y-130935333D01*
X141281000Y-129535333D01*
X142681000Y-129535333D02*
X142947667Y-129535333D01*
X143081000Y-129602000D01*
X143214333Y-129735333D01*
X143281000Y-130002000D01*
X143281000Y-130468667D01*
X143214333Y-130735333D01*
X143081000Y-130868667D01*
X142947667Y-130935333D01*
X142681000Y-130935333D01*
X142547667Y-130868667D01*
X142414333Y-130735333D01*
X142347667Y-130468667D01*
X142347667Y-130002000D01*
X142414333Y-129735333D01*
X142547667Y-129602000D01*
X142681000Y-129535333D01*
X143747667Y-129535333D02*
X144081000Y-130935333D01*
X144347667Y-129935333D01*
X144614334Y-130935333D01*
X144947667Y-129535333D01*
X146814334Y-129535333D02*
X147081001Y-129535333D01*
X147214334Y-129602000D01*
X147347667Y-129735333D01*
X147414334Y-130002000D01*
X147414334Y-130468667D01*
X147347667Y-130735333D01*
X147214334Y-130868667D01*
X147081001Y-130935333D01*
X146814334Y-130935333D01*
X146681001Y-130868667D01*
X146547667Y-130735333D01*
X146481001Y-130468667D01*
X146481001Y-130002000D01*
X146547667Y-129735333D01*
X146681001Y-129602000D01*
X146814334Y-129535333D01*
X147947668Y-129668667D02*
X148014334Y-129602000D01*
X148147668Y-129535333D01*
X148481001Y-129535333D01*
X148614334Y-129602000D01*
X148681001Y-129668667D01*
X148747668Y-129802000D01*
X148747668Y-129935333D01*
X148681001Y-130135333D01*
X147881001Y-130935333D01*
X148747668Y-130935333D01*
D12*
X137300000Y-107830000D02*
X134480000Y-107830000D01*
X134480000Y-107830000D02*
X134480000Y-113150000D01*
X134480000Y-113150000D02*
X137300000Y-113150000D01*
X137300000Y-113150000D02*
X137300000Y-107830000D01*
X135890000Y-106690000D02*
X135890000Y-107830000D01*
X135890000Y-114290000D02*
X135890000Y-113150000D01*
X137300000Y-108670000D02*
X134480000Y-108670000D01*
X146330000Y-109700000D02*
G75*
G03X146330000Y-109700000I-4090000J0D01*
G01*
X146290000Y-109700000D02*
X138190000Y-109700000D01*
X146290000Y-109740000D02*
X138190000Y-109740000D01*
X146290000Y-109780000D02*
X138190000Y-109780000D01*
X146289000Y-109820000D02*
X138191000Y-109820000D01*
X146287000Y-109860000D02*
X138193000Y-109860000D01*
X146286000Y-109900000D02*
X138194000Y-109900000D01*
X146283000Y-109940000D02*
X138197000Y-109940000D01*
X146281000Y-109980000D02*
X138199000Y-109980000D01*
X146278000Y-110020000D02*
X138202000Y-110020000D01*
X146275000Y-110060000D02*
X138205000Y-110060000D01*
X146271000Y-110100000D02*
X138209000Y-110100000D01*
X146267000Y-110140000D02*
X138213000Y-110140000D01*
X146262000Y-110180000D02*
X138218000Y-110180000D01*
X146257000Y-110220000D02*
X138223000Y-110220000D01*
X146252000Y-110260000D02*
X138228000Y-110260000D01*
X146246000Y-110300000D02*
X138234000Y-110300000D01*
X146240000Y-110340000D02*
X138240000Y-110340000D01*
X146234000Y-110380000D02*
X138246000Y-110380000D01*
X146227000Y-110421000D02*
X138253000Y-110421000D01*
X146219000Y-110461000D02*
X138261000Y-110461000D01*
X146211000Y-110501000D02*
X143220000Y-110501000D01*
X141260000Y-110501000D02*
X138269000Y-110501000D01*
X146203000Y-110541000D02*
X143220000Y-110541000D01*
X141260000Y-110541000D02*
X138277000Y-110541000D01*
X146195000Y-110581000D02*
X143220000Y-110581000D01*
X141260000Y-110581000D02*
X138285000Y-110581000D01*
X146186000Y-110621000D02*
X143220000Y-110621000D01*
X141260000Y-110621000D02*
X138294000Y-110621000D01*
X146176000Y-110661000D02*
X143220000Y-110661000D01*
X141260000Y-110661000D02*
X138304000Y-110661000D01*
X146166000Y-110701000D02*
X143220000Y-110701000D01*
X141260000Y-110701000D02*
X138314000Y-110701000D01*
X146156000Y-110741000D02*
X143220000Y-110741000D01*
X141260000Y-110741000D02*
X138324000Y-110741000D01*
X146145000Y-110781000D02*
X143220000Y-110781000D01*
X141260000Y-110781000D02*
X138335000Y-110781000D01*
X146134000Y-110821000D02*
X143220000Y-110821000D01*
X141260000Y-110821000D02*
X138346000Y-110821000D01*
X146123000Y-110861000D02*
X143220000Y-110861000D01*
X141260000Y-110861000D02*
X138357000Y-110861000D01*
X146110000Y-110901000D02*
X143220000Y-110901000D01*
X141260000Y-110901000D02*
X138370000Y-110901000D01*
X146098000Y-110941000D02*
X143220000Y-110941000D01*
X141260000Y-110941000D02*
X138382000Y-110941000D01*
X146085000Y-110981000D02*
X143220000Y-110981000D01*
X141260000Y-110981000D02*
X138395000Y-110981000D01*
X146072000Y-111021000D02*
X143220000Y-111021000D01*
X141260000Y-111021000D02*
X138408000Y-111021000D01*
X146058000Y-111061000D02*
X143220000Y-111061000D01*
X141260000Y-111061000D02*
X138422000Y-111061000D01*
X146043000Y-111101000D02*
X143220000Y-111101000D01*
X141260000Y-111101000D02*
X138437000Y-111101000D01*
X146029000Y-111141000D02*
X143220000Y-111141000D01*
X141260000Y-111141000D02*
X138451000Y-111141000D01*
X146013000Y-111181000D02*
X143220000Y-111181000D01*
X141260000Y-111181000D02*
X138467000Y-111181000D01*
X145998000Y-111221000D02*
X143220000Y-111221000D01*
X141260000Y-111221000D02*
X138482000Y-111221000D01*
X145981000Y-111261000D02*
X143220000Y-111261000D01*
X141260000Y-111261000D02*
X138499000Y-111261000D01*
X145965000Y-111301000D02*
X143220000Y-111301000D01*
X141260000Y-111301000D02*
X138515000Y-111301000D01*
X145947000Y-111341000D02*
X143220000Y-111341000D01*
X141260000Y-111341000D02*
X138533000Y-111341000D01*
X145930000Y-111381000D02*
X143220000Y-111381000D01*
X141260000Y-111381000D02*
X138550000Y-111381000D01*
X145911000Y-111421000D02*
X143220000Y-111421000D01*
X141260000Y-111421000D02*
X138569000Y-111421000D01*
X145892000Y-111461000D02*
X143220000Y-111461000D01*
X141260000Y-111461000D02*
X138588000Y-111461000D01*
X145873000Y-111501000D02*
X143220000Y-111501000D01*
X141260000Y-111501000D02*
X138607000Y-111501000D01*
X145853000Y-111541000D02*
X143220000Y-111541000D01*
X141260000Y-111541000D02*
X138627000Y-111541000D01*
X145833000Y-111581000D02*
X143220000Y-111581000D01*
X141260000Y-111581000D02*
X138647000Y-111581000D01*
X145812000Y-111621000D02*
X143220000Y-111621000D01*
X141260000Y-111621000D02*
X138668000Y-111621000D01*
X145790000Y-111661000D02*
X143220000Y-111661000D01*
X141260000Y-111661000D02*
X138690000Y-111661000D01*
X145768000Y-111701000D02*
X143220000Y-111701000D01*
X141260000Y-111701000D02*
X138712000Y-111701000D01*
X145745000Y-111741000D02*
X143220000Y-111741000D01*
X141260000Y-111741000D02*
X138735000Y-111741000D01*
X145722000Y-111781000D02*
X143220000Y-111781000D01*
X141260000Y-111781000D02*
X138758000Y-111781000D01*
X145698000Y-111821000D02*
X143220000Y-111821000D01*
X141260000Y-111821000D02*
X138782000Y-111821000D01*
X145674000Y-111861000D02*
X143220000Y-111861000D01*
X141260000Y-111861000D02*
X138806000Y-111861000D01*
X145648000Y-111901000D02*
X143220000Y-111901000D01*
X141260000Y-111901000D02*
X138832000Y-111901000D01*
X145623000Y-111941000D02*
X143220000Y-111941000D01*
X141260000Y-111941000D02*
X138857000Y-111941000D01*
X145596000Y-111981000D02*
X143220000Y-111981000D01*
X141260000Y-111981000D02*
X138884000Y-111981000D01*
X145569000Y-112021000D02*
X143220000Y-112021000D01*
X141260000Y-112021000D02*
X138911000Y-112021000D01*
X145541000Y-112061000D02*
X143220000Y-112061000D01*
X141260000Y-112061000D02*
X138939000Y-112061000D01*
X145512000Y-112101000D02*
X143220000Y-112101000D01*
X141260000Y-112101000D02*
X138968000Y-112101000D01*
X145483000Y-112141000D02*
X143220000Y-112141000D01*
X141260000Y-112141000D02*
X138997000Y-112141000D01*
X145453000Y-112181000D02*
X143220000Y-112181000D01*
X141260000Y-112181000D02*
X139027000Y-112181000D01*
X145422000Y-112221000D02*
X143220000Y-112221000D01*
X141260000Y-112221000D02*
X139058000Y-112221000D01*
X145390000Y-112261000D02*
X143220000Y-112261000D01*
X141260000Y-112261000D02*
X139090000Y-112261000D01*
X145358000Y-112301000D02*
X143220000Y-112301000D01*
X141260000Y-112301000D02*
X139122000Y-112301000D01*
X145324000Y-112341000D02*
X143220000Y-112341000D01*
X141260000Y-112341000D02*
X139156000Y-112341000D01*
X145290000Y-112381000D02*
X143220000Y-112381000D01*
X141260000Y-112381000D02*
X139190000Y-112381000D01*
X145255000Y-112421000D02*
X143220000Y-112421000D01*
X141260000Y-112421000D02*
X139225000Y-112421000D01*
X145219000Y-112461000D02*
X139261000Y-112461000D01*
X145182000Y-112501000D02*
X139298000Y-112501000D01*
X145144000Y-112541000D02*
X139336000Y-112541000D01*
X145105000Y-112581000D02*
X139375000Y-112581000D01*
X145064000Y-112621000D02*
X139416000Y-112621000D01*
X145023000Y-112661000D02*
X139457000Y-112661000D01*
X144980000Y-112701000D02*
X139500000Y-112701000D01*
X144937000Y-112741000D02*
X139543000Y-112741000D01*
X144892000Y-112781000D02*
X139588000Y-112781000D01*
X144845000Y-112821000D02*
X139635000Y-112821000D01*
X144797000Y-112861000D02*
X139683000Y-112861000D01*
X144748000Y-112901000D02*
X139732000Y-112901000D01*
X144697000Y-112941000D02*
X139783000Y-112941000D01*
X144644000Y-112981000D02*
X139836000Y-112981000D01*
X144589000Y-113021000D02*
X139891000Y-113021000D01*
X144533000Y-113061000D02*
X139947000Y-113061000D01*
X144474000Y-113101000D02*
X140006000Y-113101000D01*
X144413000Y-113141000D02*
X140067000Y-113141000D01*
X144349000Y-113181000D02*
X140131000Y-113181000D01*
X144283000Y-113221000D02*
X140197000Y-113221000D01*
X144214000Y-113261000D02*
X140266000Y-113261000D01*
X144142000Y-113301000D02*
X140338000Y-113301000D01*
X144066000Y-113341000D02*
X140414000Y-113341000D01*
X143985000Y-113381000D02*
X140495000Y-113381000D01*
X143900000Y-113421000D02*
X140580000Y-113421000D01*
X143810000Y-113461000D02*
X140670000Y-113461000D01*
X143713000Y-113501000D02*
X140767000Y-113501000D01*
X143609000Y-113541000D02*
X140871000Y-113541000D01*
X143494000Y-113581000D02*
X140986000Y-113581000D01*
X143367000Y-113621000D02*
X141113000Y-113621000D01*
X143223000Y-113661000D02*
X141257000Y-113661000D01*
X143054000Y-113701000D02*
X141426000Y-113701000D01*
X142838000Y-113741000D02*
X141642000Y-113741000D01*
X142486000Y-113781000D02*
X141994000Y-113781000D01*
X142240000Y-105750000D02*
X142240000Y-106950000D01*
X142890000Y-106350000D02*
X141590000Y-106350000D01*
X148075000Y-120025000D02*
X145415000Y-120025000D01*
X145415000Y-120025000D02*
X145415000Y-122765000D01*
X145415000Y-122765000D02*
X148075000Y-122765000D01*
X148075000Y-122765000D02*
X148075000Y-120025000D01*
X147125000Y-122765000D02*
X146245000Y-122765000D01*
X146245000Y-122765000D02*
X146245000Y-128765000D01*
X146245000Y-128765000D02*
X147125000Y-128765000D01*
X147125000Y-128765000D02*
X147125000Y-122765000D01*
X147125000Y-119715000D02*
X147125000Y-120025000D01*
X146245000Y-119715000D02*
X146245000Y-120025000D01*
X147125000Y-117175000D02*
X147125000Y-117775000D01*
X146245000Y-117175000D02*
X146245000Y-117775000D01*
X147005000Y-122765000D02*
X147005000Y-128765000D01*
X146885000Y-122765000D02*
X146885000Y-128765000D01*
X146765000Y-122765000D02*
X146765000Y-128765000D01*
X146645000Y-122765000D02*
X146645000Y-128765000D01*
X146525000Y-122765000D02*
X146525000Y-128765000D01*
X146405000Y-122765000D02*
X146405000Y-128765000D01*
X146285000Y-122765000D02*
X146285000Y-128765000D01*
X145415000Y-120025000D02*
X142875000Y-120025000D01*
X142875000Y-120025000D02*
X142875000Y-122765000D01*
X142875000Y-122765000D02*
X145415000Y-122765000D01*
X145415000Y-122765000D02*
X145415000Y-120025000D01*
X144585000Y-122765000D02*
X143705000Y-122765000D01*
X143705000Y-122765000D02*
X143705000Y-128765000D01*
X143705000Y-128765000D02*
X144585000Y-128765000D01*
X144585000Y-128765000D02*
X144585000Y-122765000D01*
X144585000Y-119715000D02*
X144585000Y-120025000D01*
X143705000Y-119715000D02*
X143705000Y-120025000D01*
X144585000Y-117175000D02*
X144585000Y-117775000D01*
X143705000Y-117175000D02*
X143705000Y-117775000D01*
X142875000Y-120025000D02*
X140215000Y-120025000D01*
X140215000Y-120025000D02*
X140215000Y-122765000D01*
X140215000Y-122765000D02*
X142875000Y-122765000D01*
X142875000Y-122765000D02*
X142875000Y-120025000D01*
X142045000Y-122765000D02*
X141165000Y-122765000D01*
X141165000Y-122765000D02*
X141165000Y-128765000D01*
X141165000Y-128765000D02*
X142045000Y-128765000D01*
X142045000Y-128765000D02*
X142045000Y-122765000D01*
X142045000Y-119715000D02*
X142045000Y-120025000D01*
X141165000Y-119715000D02*
X141165000Y-120025000D01*
X142045000Y-117175000D02*
X142045000Y-117775000D01*
X141165000Y-117175000D02*
X141165000Y-117775000D01*
X146685000Y-114935000D02*
X147955000Y-114935000D01*
X147955000Y-114935000D02*
X147955000Y-116205000D01*
D13*
X132969000Y-91059000D02*
X136398000Y-91059000D01*
X132969000Y-100711000D02*
X136398000Y-100711000D01*
X131826000Y-90551000D02*
X131826000Y-101219000D01*
X132842000Y-94107000D02*
X131572000Y-94107000D01*
X132842000Y-97663000D02*
X131572000Y-97663000D01*
X132969000Y-101219000D02*
X132969000Y-90551000D01*
X136398000Y-90551000D02*
X136398000Y-101219000D01*
X131572000Y-101219000D02*
X136398000Y-101219000D01*
X131572000Y-90551000D02*
X136398000Y-90551000D01*
X131572000Y-90551000D02*
X131572000Y-101219000D01*
D12*
X140375000Y-94580000D02*
X137755000Y-94580000D01*
X137755000Y-94580000D02*
X137755000Y-101000000D01*
X137755000Y-101000000D02*
X140375000Y-101000000D01*
X140375000Y-101000000D02*
X140375000Y-94580000D01*
X139065000Y-93690000D02*
X139065000Y-94580000D01*
X139065000Y-101890000D02*
X139065000Y-101000000D01*
X141570000Y-87590000D02*
X141570000Y-90210000D01*
X141570000Y-90210000D02*
X147990000Y-90210000D01*
X147990000Y-90210000D02*
X147990000Y-87590000D01*
X147990000Y-87590000D02*
X141570000Y-87590000D01*
X140680000Y-88900000D02*
X141570000Y-88900000D01*
X148880000Y-88900000D02*
X147990000Y-88900000D01*
X147360000Y-94580000D02*
X144740000Y-94580000D01*
X144740000Y-94580000D02*
X144740000Y-101000000D01*
X144740000Y-101000000D02*
X147360000Y-101000000D01*
X147360000Y-101000000D02*
X147360000Y-94580000D01*
X146050000Y-93690000D02*
X146050000Y-94580000D01*
X146050000Y-101890000D02*
X146050000Y-101000000D01*
X151170000Y-94580000D02*
X148550000Y-94580000D01*
X148550000Y-94580000D02*
X148550000Y-101000000D01*
X148550000Y-101000000D02*
X151170000Y-101000000D01*
X151170000Y-101000000D02*
X151170000Y-94580000D01*
X149860000Y-93690000D02*
X149860000Y-94580000D01*
X149860000Y-101890000D02*
X149860000Y-101000000D01*
X157210000Y-91320000D02*
G75*
G02X155210000Y-91320000I-1000000J0D01*
G01*
X155210000Y-91320000D02*
X153440000Y-91320000D01*
X153440000Y-91320000D02*
X153440000Y-101720000D01*
X153440000Y-101720000D02*
X158980000Y-101720000D01*
X158980000Y-101720000D02*
X158980000Y-91320000D01*
X158980000Y-91320000D02*
X157210000Y-91320000D01*
X151010000Y-91320000D02*
X151010000Y-101720000D01*
X151010000Y-101720000D02*
X161410000Y-101720000D01*
X161410000Y-101720000D02*
X161410000Y-91320000D01*
X161410000Y-91320000D02*
X151010000Y-91320000D01*
X152765000Y-105290000D02*
G75*
G02X150765000Y-105290000I-1000000J0D01*
G01*
X150765000Y-105290000D02*
X148995000Y-105290000D01*
X148995000Y-105290000D02*
X148995000Y-113150000D01*
X148995000Y-113150000D02*
X154535000Y-113150000D01*
X154535000Y-113150000D02*
X154535000Y-105290000D01*
X154535000Y-105290000D02*
X152765000Y-105290000D01*
X146565000Y-105290000D02*
X146565000Y-113150000D01*
X146565000Y-113150000D02*
X156965000Y-113150000D01*
X156965000Y-113150000D02*
X156965000Y-105290000D01*
X156965000Y-105290000D02*
X146565000Y-105290000D01*
X143617500Y-95730000D02*
X141497500Y-95730000D01*
X141497500Y-95730000D02*
X141497500Y-99850000D01*
X141497500Y-99850000D02*
X143617500Y-99850000D01*
X143617500Y-99850000D02*
X143617500Y-95730000D01*
X142557500Y-93690000D02*
X142557500Y-95730000D01*
X142557500Y-101890000D02*
X142557500Y-99850000D01*
X143617500Y-96390000D02*
X141497500Y-96390000D01*
X138500000Y-82595000D02*
X138500000Y-86315000D01*
X138500000Y-86315000D02*
X148520000Y-86315000D01*
X148520000Y-86315000D02*
X148520000Y-82595000D01*
X148520000Y-82595000D02*
X138500000Y-82595000D01*
X134730000Y-84455000D02*
X138500000Y-84455000D01*
X152290000Y-84455000D02*
X148520000Y-84455000D01*
X131385000Y-111565000D02*
X131385000Y-103065000D01*
X134045000Y-111565000D02*
X134045000Y-103065000D01*
X131385000Y-111565000D02*
X134045000Y-111565000D01*
X131385000Y-103065000D02*
X134045000Y-103065000D01*
D13*
X157250000Y-80320000D02*
X162250000Y-80320000D01*
X155250000Y-82320000D02*
X155250000Y-87320000D01*
X157250000Y-80320000D02*
X155250000Y-82320000D01*
X156250000Y-80820000D02*
G75*
G03X156250000Y-80820000I-500000J0D01*
G01*
X162250000Y-80320000D02*
X162250000Y-87320000D01*
X162250000Y-87320000D02*
X155250000Y-87320000D01*
X135151905Y-103322381D02*
X135151905Y-102322381D01*
X135390000Y-102322381D01*
X135532858Y-102370000D01*
X135628096Y-102465238D01*
X135675715Y-102560476D01*
X135723334Y-102750952D01*
X135723334Y-102893810D01*
X135675715Y-103084286D01*
X135628096Y-103179524D01*
X135532858Y-103274762D01*
X135390000Y-103322381D01*
X135151905Y-103322381D01*
X136675715Y-103322381D02*
X136104286Y-103322381D01*
X136390000Y-103322381D02*
X136390000Y-102322381D01*
X136294762Y-102465238D01*
X136199524Y-102560476D01*
X136104286Y-102608095D01*
X143835524Y-105084571D02*
X144168858Y-105084571D01*
X144311715Y-105608381D02*
X143835524Y-105608381D01*
X143835524Y-104608381D01*
X144311715Y-104608381D01*
X145264096Y-105608381D02*
X144692667Y-105608381D01*
X144978381Y-105608381D02*
X144978381Y-104608381D01*
X144883143Y-104751238D01*
X144787905Y-104846476D01*
X144692667Y-104894095D01*
X149026667Y-120356381D02*
X149026667Y-121070667D01*
X148979047Y-121213524D01*
X148883809Y-121308762D01*
X148740952Y-121356381D01*
X148645714Y-121356381D01*
X149502857Y-121356381D02*
X149502857Y-120356381D01*
X149883810Y-120356381D01*
X149979048Y-120404000D01*
X150026667Y-120451619D01*
X150074286Y-120546857D01*
X150074286Y-120689714D01*
X150026667Y-120784952D01*
X149979048Y-120832571D01*
X149883810Y-120880190D01*
X149502857Y-120880190D01*
X151026667Y-121356381D02*
X150455238Y-121356381D01*
X150740952Y-121356381D02*
X150740952Y-120356381D01*
X150645714Y-120499238D01*
X150550476Y-120594476D01*
X150455238Y-120642095D01*
X134524762Y-90082619D02*
X134429524Y-90035000D01*
X134334286Y-89939762D01*
X134191429Y-89796905D01*
X134096190Y-89749286D01*
X134000952Y-89749286D01*
X134048571Y-89987381D02*
X133953333Y-89939762D01*
X133858095Y-89844524D01*
X133810476Y-89654048D01*
X133810476Y-89320714D01*
X133858095Y-89130238D01*
X133953333Y-89035000D01*
X134048571Y-88987381D01*
X134239048Y-88987381D01*
X134334286Y-89035000D01*
X134429524Y-89130238D01*
X134477143Y-89320714D01*
X134477143Y-89654048D01*
X134429524Y-89844524D01*
X134334286Y-89939762D01*
X134239048Y-89987381D01*
X134048571Y-89987381D01*
X135429524Y-89987381D02*
X134858095Y-89987381D01*
X135143809Y-89987381D02*
X135143809Y-88987381D01*
X135048571Y-89130238D01*
X134953333Y-89225476D01*
X134858095Y-89273095D01*
X138898334Y-91511381D02*
X138565000Y-91035190D01*
X138326905Y-91511381D02*
X138326905Y-90511381D01*
X138707858Y-90511381D01*
X138803096Y-90559000D01*
X138850715Y-90606619D01*
X138898334Y-90701857D01*
X138898334Y-90844714D01*
X138850715Y-90939952D01*
X138803096Y-90987571D01*
X138707858Y-91035190D01*
X138326905Y-91035190D01*
X139850715Y-91511381D02*
X139279286Y-91511381D01*
X139565000Y-91511381D02*
X139565000Y-90511381D01*
X139469762Y-90654238D01*
X139374524Y-90749476D01*
X139279286Y-90797095D01*
X137628334Y-89352381D02*
X137295000Y-88876190D01*
X137056905Y-89352381D02*
X137056905Y-88352381D01*
X137437858Y-88352381D01*
X137533096Y-88400000D01*
X137580715Y-88447619D01*
X137628334Y-88542857D01*
X137628334Y-88685714D01*
X137580715Y-88780952D01*
X137533096Y-88828571D01*
X137437858Y-88876190D01*
X137056905Y-88876190D01*
X138485477Y-88685714D02*
X138485477Y-89352381D01*
X138247381Y-88304762D02*
X138009286Y-89019048D01*
X138628334Y-89019048D01*
X145883334Y-91511381D02*
X145550000Y-91035190D01*
X145311905Y-91511381D02*
X145311905Y-90511381D01*
X145692858Y-90511381D01*
X145788096Y-90559000D01*
X145835715Y-90606619D01*
X145883334Y-90701857D01*
X145883334Y-90844714D01*
X145835715Y-90939952D01*
X145788096Y-90987571D01*
X145692858Y-91035190D01*
X145311905Y-91035190D01*
X146788096Y-90511381D02*
X146311905Y-90511381D01*
X146264286Y-90987571D01*
X146311905Y-90939952D01*
X146407143Y-90892333D01*
X146645239Y-90892333D01*
X146740477Y-90939952D01*
X146788096Y-90987571D01*
X146835715Y-91082810D01*
X146835715Y-91320905D01*
X146788096Y-91416143D01*
X146740477Y-91463762D01*
X146645239Y-91511381D01*
X146407143Y-91511381D01*
X146311905Y-91463762D01*
X146264286Y-91416143D01*
X149693334Y-91511381D02*
X149360000Y-91035190D01*
X149121905Y-91511381D02*
X149121905Y-90511381D01*
X149502858Y-90511381D01*
X149598096Y-90559000D01*
X149645715Y-90606619D01*
X149693334Y-90701857D01*
X149693334Y-90844714D01*
X149645715Y-90939952D01*
X149598096Y-90987571D01*
X149502858Y-91035190D01*
X149121905Y-91035190D01*
X150550477Y-90511381D02*
X150360000Y-90511381D01*
X150264762Y-90559000D01*
X150217143Y-90606619D01*
X150121905Y-90749476D01*
X150074286Y-90939952D01*
X150074286Y-91320905D01*
X150121905Y-91416143D01*
X150169524Y-91463762D01*
X150264762Y-91511381D01*
X150455239Y-91511381D01*
X150550477Y-91463762D01*
X150598096Y-91416143D01*
X150645715Y-91320905D01*
X150645715Y-91082810D01*
X150598096Y-90987571D01*
X150550477Y-90939952D01*
X150455239Y-90892333D01*
X150264762Y-90892333D01*
X150169524Y-90939952D01*
X150121905Y-90987571D01*
X150074286Y-91082810D01*
X155448095Y-89772381D02*
X155448095Y-90581905D01*
X155495714Y-90677143D01*
X155543333Y-90724762D01*
X155638571Y-90772381D01*
X155829048Y-90772381D01*
X155924286Y-90724762D01*
X155971905Y-90677143D01*
X156019524Y-90581905D01*
X156019524Y-89772381D01*
X157019524Y-90772381D02*
X156448095Y-90772381D01*
X156733809Y-90772381D02*
X156733809Y-89772381D01*
X156638571Y-89915238D01*
X156543333Y-90010476D01*
X156448095Y-90058095D01*
X151003095Y-113752381D02*
X151003095Y-114561905D01*
X151050714Y-114657143D01*
X151098333Y-114704762D01*
X151193571Y-114752381D01*
X151384048Y-114752381D01*
X151479286Y-114704762D01*
X151526905Y-114657143D01*
X151574524Y-114561905D01*
X151574524Y-113752381D01*
X152003095Y-113847619D02*
X152050714Y-113800000D01*
X152145952Y-113752381D01*
X152384048Y-113752381D01*
X152479286Y-113800000D01*
X152526905Y-113847619D01*
X152574524Y-113942857D01*
X152574524Y-114038095D01*
X152526905Y-114180952D01*
X151955476Y-114752381D01*
X152574524Y-114752381D01*
X141755905Y-91511381D02*
X141755905Y-90511381D01*
X141994000Y-90511381D01*
X142136858Y-90559000D01*
X142232096Y-90654238D01*
X142279715Y-90749476D01*
X142327334Y-90939952D01*
X142327334Y-91082810D01*
X142279715Y-91273286D01*
X142232096Y-91368524D01*
X142136858Y-91463762D01*
X141994000Y-91511381D01*
X141755905Y-91511381D01*
X142708286Y-90606619D02*
X142755905Y-90559000D01*
X142851143Y-90511381D01*
X143089239Y-90511381D01*
X143184477Y-90559000D01*
X143232096Y-90606619D01*
X143279715Y-90701857D01*
X143279715Y-90797095D01*
X143232096Y-90939952D01*
X142660667Y-91511381D01*
X143279715Y-91511381D01*
X143343334Y-82047381D02*
X143010000Y-81571190D01*
X142771905Y-82047381D02*
X142771905Y-81047381D01*
X143152858Y-81047381D01*
X143248096Y-81095000D01*
X143295715Y-81142619D01*
X143343334Y-81237857D01*
X143343334Y-81380714D01*
X143295715Y-81475952D01*
X143248096Y-81523571D01*
X143152858Y-81571190D01*
X142771905Y-81571190D01*
X143724286Y-81142619D02*
X143771905Y-81095000D01*
X143867143Y-81047381D01*
X144105239Y-81047381D01*
X144200477Y-81095000D01*
X144248096Y-81142619D01*
X144295715Y-81237857D01*
X144295715Y-81333095D01*
X144248096Y-81475952D01*
X143676667Y-82047381D01*
X144295715Y-82047381D01*
X163838095Y-102322381D02*
X164409524Y-102322381D01*
X164123809Y-103322381D02*
X164123809Y-102322381D01*
X164742857Y-103322381D02*
X164742857Y-102322381D01*
X165123810Y-102322381D01*
X165219048Y-102370000D01*
X165266667Y-102417619D01*
X165314286Y-102512857D01*
X165314286Y-102655714D01*
X165266667Y-102750952D01*
X165219048Y-102798571D01*
X165123810Y-102846190D01*
X164742857Y-102846190D01*
X166266667Y-103322381D02*
X165695238Y-103322381D01*
X165980952Y-103322381D02*
X165980952Y-102322381D01*
X165885714Y-102465238D01*
X165790476Y-102560476D01*
X165695238Y-102608095D01*
X163838095Y-97242381D02*
X164409524Y-97242381D01*
X164123809Y-98242381D02*
X164123809Y-97242381D01*
X164742857Y-98242381D02*
X164742857Y-97242381D01*
X165123810Y-97242381D01*
X165219048Y-97290000D01*
X165266667Y-97337619D01*
X165314286Y-97432857D01*
X165314286Y-97575714D01*
X165266667Y-97670952D01*
X165219048Y-97718571D01*
X165123810Y-97766190D01*
X164742857Y-97766190D01*
X165695238Y-97337619D02*
X165742857Y-97290000D01*
X165838095Y-97242381D01*
X166076191Y-97242381D01*
X166171429Y-97290000D01*
X166219048Y-97337619D01*
X166266667Y-97432857D01*
X166266667Y-97528095D01*
X166219048Y-97670952D01*
X165647619Y-98242381D01*
X166266667Y-98242381D01*
X163838095Y-92162381D02*
X164409524Y-92162381D01*
X164123809Y-93162381D02*
X164123809Y-92162381D01*
X164742857Y-93162381D02*
X164742857Y-92162381D01*
X165123810Y-92162381D01*
X165219048Y-92210000D01*
X165266667Y-92257619D01*
X165314286Y-92352857D01*
X165314286Y-92495714D01*
X165266667Y-92590952D01*
X165219048Y-92638571D01*
X165123810Y-92686190D01*
X164742857Y-92686190D01*
X165647619Y-92162381D02*
X166266667Y-92162381D01*
X165933333Y-92543333D01*
X166076191Y-92543333D01*
X166171429Y-92590952D01*
X166219048Y-92638571D01*
X166266667Y-92733810D01*
X166266667Y-92971905D01*
X166219048Y-93067143D01*
X166171429Y-93114762D01*
X166076191Y-93162381D01*
X165790476Y-93162381D01*
X165695238Y-93114762D01*
X165647619Y-93067143D01*
X163838095Y-87082381D02*
X164409524Y-87082381D01*
X164123809Y-88082381D02*
X164123809Y-87082381D01*
X164742857Y-88082381D02*
X164742857Y-87082381D01*
X165123810Y-87082381D01*
X165219048Y-87130000D01*
X165266667Y-87177619D01*
X165314286Y-87272857D01*
X165314286Y-87415714D01*
X165266667Y-87510952D01*
X165219048Y-87558571D01*
X165123810Y-87606190D01*
X164742857Y-87606190D01*
X166171429Y-87415714D02*
X166171429Y-88082381D01*
X165933333Y-87034762D02*
X165695238Y-87749048D01*
X166314286Y-87749048D01*
X130837381Y-107862619D02*
X130361190Y-108195953D01*
X130837381Y-108434048D02*
X129837381Y-108434048D01*
X129837381Y-108053095D01*
X129885000Y-107957857D01*
X129932619Y-107910238D01*
X130027857Y-107862619D01*
X130170714Y-107862619D01*
X130265952Y-107910238D01*
X130313571Y-107957857D01*
X130361190Y-108053095D01*
X130361190Y-108434048D01*
X129837381Y-107576905D02*
X129837381Y-107005476D01*
X130837381Y-107291191D02*
X129837381Y-107291191D01*
X130837381Y-106148333D02*
X130837381Y-106719762D01*
X130837381Y-106434048D02*
X129837381Y-106434048D01*
X129980238Y-106529286D01*
X130075476Y-106624524D01*
X130123095Y-106719762D01*
D14*
X154014714Y-83947000D02*
X153651857Y-84201000D01*
X154014714Y-84382428D02*
X153252714Y-84382428D01*
X153252714Y-84092143D01*
X153289000Y-84019571D01*
X153325286Y-83983286D01*
X153397857Y-83947000D01*
X153506714Y-83947000D01*
X153579286Y-83983286D01*
X153615571Y-84019571D01*
X153651857Y-84092143D01*
X153651857Y-84382428D01*
X153252714Y-83693000D02*
X153252714Y-83221286D01*
X153543000Y-83475286D01*
X153543000Y-83366428D01*
X153579286Y-83293857D01*
X153615571Y-83257571D01*
X153688143Y-83221286D01*
X153869571Y-83221286D01*
X153942143Y-83257571D01*
X153978429Y-83293857D01*
X154014714Y-83366428D01*
X154014714Y-83584143D01*
X153978429Y-83656714D01*
X153942143Y-83693000D01*
M02*
