G04 #@! TF.FileFunction,Copper,L1,Top,Signal*
%FSLAX46Y46*%
G04 Gerber Fmt 4.6, Leading zero omitted, Abs format (unit mm)*
G04 Created by KiCad (PCBNEW 4.0.5) date 02/23/17 17:23:27*
%MOMM*%
%LPD*%
G01*
G04 APERTURE LIST*
%ADD10C,0.100000*%
%ADD11C,0.300000*%
%ADD12R,2.200000X2.200000*%
%ADD13O,2.200000X2.200000*%
%ADD14R,1.600000X1.600000*%
%ADD15C,1.600000*%
%ADD16R,1.700000X1.700000*%
%ADD17O,1.700000X1.700000*%
%ADD18O,2.540000X2.032000*%
%ADD19O,1.600000X1.600000*%
%ADD20C,2.400000*%
%ADD21O,2.400000X2.400000*%
%ADD22R,2.499360X2.499360*%
%ADD23R,1.400000X1.400000*%
%ADD24C,1.400000*%
%ADD25C,1.270000*%
%ADD26C,1.016000*%
%ADD27C,0.762000*%
G04 APERTURE END LIST*
D10*
D11*
X131385143Y-125510857D02*
X131385143Y-124310857D01*
X131385143Y-124882286D02*
X132070858Y-124882286D01*
X132070858Y-125510857D02*
X132070858Y-124310857D01*
X132585143Y-125168000D02*
X133156572Y-125168000D01*
X132470858Y-125510857D02*
X132870858Y-124310857D01*
X133270858Y-125510857D01*
X134185143Y-124710857D02*
X134185143Y-125510857D01*
X133899429Y-124253714D02*
X133613714Y-125110857D01*
X134356572Y-125110857D01*
X135442286Y-125510857D02*
X134756571Y-125510857D01*
X135099429Y-125510857D02*
X135099429Y-124310857D01*
X134985143Y-124482286D01*
X134870857Y-124596571D01*
X134756571Y-124653714D01*
X136185143Y-124310857D02*
X136299428Y-124310857D01*
X136413714Y-124368000D01*
X136470857Y-124425143D01*
X136528000Y-124539429D01*
X136585143Y-124768000D01*
X136585143Y-125053714D01*
X136528000Y-125282286D01*
X136470857Y-125396571D01*
X136413714Y-125453714D01*
X136299428Y-125510857D01*
X136185143Y-125510857D01*
X136070857Y-125453714D01*
X136013714Y-125396571D01*
X135956571Y-125282286D01*
X135899428Y-125053714D01*
X135899428Y-124768000D01*
X135956571Y-124539429D01*
X136013714Y-124425143D01*
X136070857Y-124368000D01*
X136185143Y-124310857D01*
X137785143Y-125510857D02*
X137385143Y-124939429D01*
X137099428Y-125510857D02*
X137099428Y-124310857D01*
X137556571Y-124310857D01*
X137670857Y-124368000D01*
X137728000Y-124425143D01*
X137785143Y-124539429D01*
X137785143Y-124710857D01*
X137728000Y-124825143D01*
X137670857Y-124882286D01*
X137556571Y-124939429D01*
X137099428Y-124939429D01*
X138928000Y-125510857D02*
X138242285Y-125510857D01*
X138585143Y-125510857D02*
X138585143Y-124310857D01*
X138470857Y-124482286D01*
X138356571Y-124596571D01*
X138242285Y-124653714D01*
D12*
X135890000Y-105410000D03*
D13*
X135890000Y-115570000D03*
D14*
X142240000Y-107950000D03*
D15*
X142240000Y-111450000D03*
D16*
X146685000Y-116205000D03*
D17*
X146685000Y-118745000D03*
X144145000Y-116205000D03*
X144145000Y-118745000D03*
X141605000Y-116205000D03*
X141605000Y-118745000D03*
D18*
X134620000Y-95885000D03*
X134620000Y-93345000D03*
X134620000Y-98425000D03*
D15*
X139065000Y-92710000D03*
D19*
X139065000Y-102870000D03*
D15*
X139700000Y-88900000D03*
D19*
X149860000Y-88900000D03*
D15*
X146050000Y-92710000D03*
D19*
X146050000Y-102870000D03*
D15*
X149860000Y-92710000D03*
D19*
X149860000Y-102870000D03*
D14*
X152400000Y-92710000D03*
D19*
X160020000Y-100330000D03*
X152400000Y-95250000D03*
X160020000Y-97790000D03*
X152400000Y-97790000D03*
X160020000Y-95250000D03*
X152400000Y-100330000D03*
X160020000Y-92710000D03*
D14*
X147955000Y-106680000D03*
D19*
X155575000Y-111760000D03*
X147955000Y-109220000D03*
X155575000Y-109220000D03*
X147955000Y-111760000D03*
X155575000Y-106680000D03*
D14*
X142557500Y-92710000D03*
D19*
X142557500Y-102870000D03*
D20*
X133350000Y-84455000D03*
D21*
X153670000Y-84455000D03*
D22*
X165100000Y-105410000D03*
X165100000Y-100330000D03*
X165100000Y-95250000D03*
X165100000Y-90170000D03*
D15*
X132715000Y-109855000D03*
X132715000Y-104775000D03*
D23*
X158750000Y-81280000D03*
D24*
X158750000Y-86360000D03*
X161290000Y-83820000D03*
D25*
X134620000Y-98425000D02*
X137541000Y-98425000D01*
X139065000Y-96901000D02*
X139065000Y-92710000D01*
X137541000Y-98425000D02*
X139065000Y-96901000D01*
D26*
X155575000Y-111760000D02*
X162052000Y-105283000D01*
X162052000Y-98298000D02*
X165100000Y-95250000D01*
X162052000Y-105283000D02*
X162052000Y-98298000D01*
X151765000Y-106426000D02*
X157226000Y-100965000D01*
X165100000Y-90170000D02*
X159385000Y-90170000D01*
X151765000Y-106426000D02*
X151765000Y-109220000D01*
X157226000Y-92329000D02*
X159385000Y-90170000D01*
X157226000Y-100965000D02*
X157226000Y-92329000D01*
X155575000Y-109220000D02*
X151765000Y-109220000D01*
X151765000Y-109220000D02*
X151765000Y-116840000D01*
X146685000Y-118745000D02*
X149860000Y-118745000D01*
X149860000Y-118745000D02*
X151765000Y-116840000D01*
D27*
X147955000Y-93599000D02*
X147955000Y-91059000D01*
X149606000Y-95250000D02*
X147955000Y-93599000D01*
X152400000Y-95250000D02*
X149606000Y-95250000D01*
X141351000Y-84455000D02*
X133350000Y-84455000D01*
X147955000Y-91059000D02*
X141351000Y-84455000D01*
X155194000Y-92075000D02*
X155194000Y-96266000D01*
X161290000Y-83820000D02*
X161290000Y-85979000D01*
X155194000Y-92075000D02*
X161290000Y-85979000D01*
X153670000Y-97790000D02*
X155194000Y-96266000D01*
X153670000Y-97790000D02*
X152400000Y-97790000D01*
X149860000Y-102870000D02*
X149860000Y-100330000D01*
X149860000Y-100330000D02*
X152400000Y-97790000D01*
X158750000Y-86360000D02*
X156210000Y-86360000D01*
X153670000Y-88900000D02*
X149860000Y-88900000D01*
X156210000Y-86360000D02*
X153670000Y-88900000D01*
D25*
X132715000Y-109855000D02*
X130556000Y-107696000D01*
X132334000Y-93345000D02*
X134620000Y-93345000D01*
X130556000Y-95123000D02*
X132334000Y-93345000D01*
X130556000Y-107696000D02*
X130556000Y-95123000D01*
M02*
