M48
;DRILL file {KiCad 4.0.5} date 02/23/17 17:23:32
;FORMAT={-:-/ absolute / inch / decimal}
FMAT,2
INCH,TZ
T1C0.028
T2C0.031
T3C0.039
T4C0.039
T5C0.043
T6C0.045
T7C0.047
%
G90
G05
M72
T1
X6.25Y-3.2
X6.25Y-3.4
X6.35Y-3.3
T2
X5.225Y-4.125
X5.225Y-4.325
X5.475Y-3.65
X5.475Y-4.05
X5.5Y-3.5
X5.6Y-4.25
X5.6Y-4.3878
X5.6125Y-3.65
X5.6125Y-4.05
X5.75Y-3.65
X5.75Y-4.05
X5.825Y-4.2
X5.825Y-4.3
X5.825Y-4.4
X5.9Y-3.5
X5.9Y-3.65
X5.9Y-4.05
X6.Y-3.65
X6.Y-3.75
X6.Y-3.85
X6.Y-3.95
X6.125Y-4.2
X6.125Y-4.3
X6.125Y-4.4
X6.3Y-3.65
X6.3Y-3.75
X6.3Y-3.85
X6.3Y-3.95
T3
X5.575Y-4.575
X5.575Y-4.675
X5.675Y-4.575
X5.675Y-4.675
X5.775Y-4.575
X5.775Y-4.675
T4
X6.5Y-3.55
X6.5Y-3.75
X6.5Y-3.95
X6.5Y-4.15
T5
X5.35Y-4.15
X5.35Y-4.55
T6
X5.3Y-3.675
X5.3Y-3.775
X5.3Y-3.875
T7
X5.25Y-3.325
X6.05Y-3.325
T0
M30
